<?xml version="1.0" encoding="UTF-8"?>

<svg xmlns="http://www.w3.org/2000/svg" xmlns:xlink="http://www.w3.org/1999/xlink" width="96pt" height="96pt" viewBox="0 0 96 96" version="1.1" style = " -webkit-filter: drop-shadow( 3px 3px 2px rgba(0, 0, 0, .7));
  filter: drop-shadow( 3px 3px 2px rgba(0, 0, 0, .7));">

<g id="surface9548754">
<path style=" stroke:none;fill-rule:nonzero;fill:#453185;fill-opacity:1;" d="M 54.992188 62 C 54.914062 62 54.839844 62 54.765625 62 C 49.691406 61.941406 44.945312 59.894531 41.398438 56.242188 C 41.179688 56.015625 41.015625 55.734375 40.921875 55.433594 L 40.769531 54.933594 C 40.550781 54.214844 40.75 53.4375 41.289062 52.914062 L 49.421875 45.023438 C 50.214844 44.253906 51.476562 44.273438 52.25 45.0625 C 53.019531 45.855469 53 47.121094 52.207031 47.890625 L 48.046875 51.953125 C 48.046875 53.828125 52.378906 55.910156 55.867188 55.953125 C 55.925781 55.953125 55.988281 55.953125 56.046875 55.953125 C 62.921875 55.953125 65.183594 52.769531 68.003906 49.996094 L 78.003906 39.996094 C 82.941406 35.058594 83.785156 25.957031 78.003906 19.996094 C 75.207031 17.117188 72.003906 15.996094 69.191406 15.996094 C 69.132812 15.996094 69.070312 15.996094 69.011719 15.996094 C 60.640625 15.996094 58.628906 20.375 54.003906 23.996094 C 52.46875 25.203125 46.003906 31.996094 46.003906 31.996094 C 36.753906 41.246094 36.003906 45.996094 36.003906 45.996094 C 36.003906 45.996094 36.109375 45.226562 36.042969 44.125 C 35.6875 38.5625 37.757812 33.140625 41.71875 29.25 L 55.753906 15.433594 C 59.378906 11.871094 64.160156 9.933594 69.238281 9.996094 C 74.3125 10.054688 79.058594 12.101562 82.605469 15.753906 C 89.910156 23.285156 89.769531 35.390625 82.289062 42.742188 L 68.257812 56.558594 C 64.679688 60.074219 59.976562 62 54.992188 62 Z M 54.992188 62 "/>
<path style=" stroke:none;fill-rule:nonzero;fill:#453185;fill-opacity:1;" d="M 54.65625 48 C 54.636719 48 54.621094 48 54.601562 48 C 53.359375 47.984375 52.191406 47.484375 51.320312 46.585938 C 49.53125 44.738281 49.566406 41.777344 51.398438 39.980469 L 56.078125 35.34375 C 56.972656 34.460938 58.179688 34.007812 59.398438 34 C 60.644531 34.015625 61.808594 34.519531 62.683594 35.414062 C 64.464844 37.257812 64.429688 40.21875 62.601562 42.019531 L 57.921875 46.65625 C 57.039062 47.527344 55.882812 48 54.65625 48 Z M 54.65625 48 "/>
<path style=" stroke:none;fill-rule:nonzero;fill:#453185;fill-opacity:1;" d="M 48.851562 76 C 48.851562 76 20.164062 45.605469 19.246094 44.6875 C 16.007812 41.433594 14 36.953125 14 32 C 14 22.058594 22.058594 14 32 14 C 39.5 14 45 18 45 18 L 44.210938 16.582031 C 42.449219 14.824219 40.367188 13.296875 38.097656 12.21875 C 35.824219 11.128906 33.371094 10.40625 30.859375 10.136719 C 25.855469 9.566406 20.617188 10.757812 16.355469 13.492188 C 14.214844 14.828125 12.316406 16.632812 10.777344 18.574219 C 9.15625 20.589844 7.976562 22.847656 7.175781 25.265625 C 5.574219 30.074219 5.574219 35.457031 7.394531 40.234375 C 8.28125 42.625 9.574219 44.859375 11.195312 46.832031 C 12.882812 48.804688 14.65625 50.410156 16.386719 52.214844 C 19.867188 55.722656 47.921875 85.613281 47.921875 85.613281 L 48.375 86.0625 L 48.816406 85.613281 L 84 50.070312 Z M 48.851562 76 "/>
</g>
</svg>